<?xml version="1.0" encoding="UTF-8"?>
<svg id="Layer_1" xmlns="http://www.w3.org/2000/svg" version="1.1" viewBox="0 0 1080 2039.63">
  <!-- Generator: Adobe Illustrator 30.2.1, SVG Export Plug-In . SVG Version: 2.1.1 Build 1)  -->
  <path d="M1034.62,204.42h-358.03c-5.12,0-9.28-4.15-9.28-9.28v-9.06c0-5.12,4.15-9.28,9.28-9.28h5.99c49.04,0,88.8-39.76,88.8-88.8h0c0-49.04-39.76-88.8-88.8-88.8h-282.02c-49.04,0-88.8,39.76-88.8,88.8h0c0,49.04,39.76,88.8,88.8,88.8h1.9c5.12,0,9.28,4.15,9.28,9.28v9.06c0,5.12-4.15,9.28-9.28,9.28H45.38c-25.06,0-45.38,20.32-45.38,45.38v1743.65c0,25.06,20.32,45.38,45.38,45.38h989.23c25.06,0,45.38-20.32,45.38-45.38V249.8c0-25.06-20.32-45.38-45.38-45.38ZM390.34,130.3c-20.24,0-36.65-16.41-36.65-36.65h0c0-20.24,16.41-36.65,36.65-36.65h114.53c.36-18.8,15.71-33.94,34.6-33.94s34.24,15.13,34.6,33.94h116.41c20.24,0,36.65,16.41,36.65,36.65h0c0,20.24-16.41,36.65-36.65,36.65h-300.14ZM638.37,195.14c0,5.12-4.15,9.28-9.28,9.28h-179.14c-5.12,0-9.28-4.15-9.28-9.28v-9.06c0-5.12,4.15-9.28,9.28-9.28h179.14c5.12,0,9.28,4.15,9.28,9.28v9.06Z"/>
</svg>