<?xml version="1.0" encoding="UTF-8"?>
<svg id="Layer_1" xmlns="http://www.w3.org/2000/svg" version="1.1" viewBox="0 0 1920 235.59">
  <!-- Generator: Adobe Illustrator 30.2.1, SVG Export Plug-In . SVG Version: 2.1.1 Build 1)  -->
  <defs>
    <style>
      .st0 {
        fill: #010101;
      }

      .st1 {
        fill: #231f20;
      }

      .st2 {
        fill: none;
        stroke: #000;
        stroke-miterlimit: 10;
        stroke-width: 6px;
      }
    </style>
  </defs>
  <path class="st0" d="M1309.43,77.41c-16.18-46.46-51.26-75.79-134.46-44.25-83.2,31.55-92.06,77.54-75.88,124,.16.46.33.89.5,1.35l-39.44,34.24,57.09-1.24c24.67,30.32,62.79,30.18,116.31,9.89,69.07-26.19,96.94-63.54,75.89-124h-.01ZM1257.73,27.02l15.21,47.84-21.17,6.73-15.21-47.84s21.17-6.73,21.17-6.73ZM1225.42,45.4l11.15,54.49-25.25,5.17-11.15-54.49,25.25-5.17h0ZM1186.99,48.43l4.55,44.59-20.66,2.11-4.55-44.59s20.66-2.11,20.66-2.11ZM1136.19,104.42l.21-.4.05.03,15.29-28.82,9.56,31.15-44.34,13.6-9.44-30.76,28.66,15.2h0ZM1141.65,181.23l-34.12-9.72,4.45-15.61,19.91,5.67,4.05-14.22-19.91-5.67,4.32-15.17,34.12,9.72-12.83,45h.01ZM1168.64,192.17l-11.76-38.3,48.24,27.09-36.48,11.2h0ZM1203.83,168.55l-21.27-40.84,18.99-9.89,21.27,40.84-18.99,9.89ZM1253.94,171.22h-23.86v-53.4h23.86v53.4ZM1270.6,133.52l-18.18-38.88,54.23,22.03-36.05,16.86h0Z"/>
  <g>
    <path d="M644.83,142.34c7.58-8.6,14.46-16.74,23.27-24.29l-12.85,25.98c3.61,0,8.4-.13,11.06-.71l40.66-39.91c-2.25-1.59-8.49-2.38-10.08-.7h0l-25.71,27.15c3.45-10.48,8.63-18.65,13.41-28.4-1.07-2.34-8.48-4.92-10.64-3.08l-24.4,29.7c5.33-12.52,10.91-22.66,17.22-34.73-2.27-1.06-5.34-1.96-7.43-2l-24.75,52.33c3.62.68,8.62.53,10.26-1.33h-.02Z"/>
    <path d="M715.54,127.76c19.97,10.47,47.4,1.94,44.94-11.89h0c-2.38-13.42-28.73-16.81-45.29-8.29-3.82,1.97-6.43,7.04-6.24,10.94.14,2.86,3.23,7.48,6.59,9.23h0ZM720.08,116.06c.3-2.05,3.1-5.67,5.26-6.45,10.16-3.64,23.95-1.69,24.13,7.6.08,3.96-2.75,8.14-7.32,9.26h0c-7.11,1.75-13.44,1.46-18.93-2.48-1.75-1.26-3.44-5.87-3.13-7.93h-.01Z"/>
    <path d="M691.06,174.06c-1.22.08-3.01,2.66-2.75,3.86,2.32,10.57,28.92,24.54,38.57,22.39l-21.52-13.08c-4.95-3.01-5.93-13.7-14.3-13.17Z"/>
    <path d="M833.06,143.6c-2.3-6.54-8.45-11.08-14.63-7.73,3.97,5.36,6.25,10.41,14.63,7.73Z"/>
    <path d="M811.61,143.15l-12.37-15.49h0l16.24-3.17c2.3-.45,3.05-6.76,1.47-9.09-13.11-19.29-30.01-18.76-51.43-14.14l35.97,41.92c1.67,1.95,8.8.98,10.12-.04h0ZM791.27,119.25l-9.81-12.24c7.09-1.64,25.11-1.64,23.32,10.21-1.98,2.5-9.55,2.38-13.5,2.03h-.01Z"/>
    <path d="M712.73,164.73c4.24,14.79,45.9,12.37,40.94-.17-14.43,7.16-27.07,5.91-40.94.17Z"/>
    <path d="M876.96,160.48c-1.23-.77-4.07.12-5.69,1.47-18.07,15.04-28.46,7.06-19.42,4.8,7.36-1.85,17.87-9.08,20.14-16.7.47-1.58-3.54-4.69-4.89-3.96-9.44,5.11-15.96,15.19-21.94,11.1,8.41-5.65,16.57-10.72,20.01-18.98.6-1.44-.93-5.78-2.31-5.56-7.45,1.22-8.49,10.99-19.62,13.49l11.3-15.17c.9-1.2-.66-6.11-1.97-5.76-1.04.27-3.49,1.33-4.32,2.19l-7.16,7.38c-9.27-21.03-19.61-40.32-32.53-59.11-2.15-36.99-33.4-51.56-64.27-58.05-2.41-.51-6.19-4.42-8.32-4.61-2.13-.19-5.81,3.91-7.98,4.22-24.97,3.48-46.86,18.1-59.54,39.88-4.83,8.29-6.98,16.88-11.46,25.1l-24.01,44.03c-4.32,7.91-5.88,17.21-7.49,25.85-7.44,3.51-44.54,21.69-39.55,31.35.65,1.26,5.02,1.59,6.22.67l12.67-9.67c.47-.36,2.23-1.19,2.72-1.41.48-.22,1.43,1.86,1.01,2.18l-2.01,1.5c-5.75,4.29-12.11,10.11-16.02,15.91-.88,1.3-.69,5.81.63,6.03,8.42,1.38,14.26-14.46,21.32-9.91l-16.81,13.24c-1.29,1.02-2.11,5.35-1.24,6.62.87,1.27,5.29,1.03,6.65.05l13.79-10c3.65,5.15-10.02,6.74-12.94,19.67-.33,1.46,1.83,4.68,3.11,4.32,1.03-.29,4.01-1.36,4.82-2.22l9.95-10.51c2.35,1.76,6.96,5.71,9.32,5.37,18.1-6.41,32.8-22.7,52.74-31.35h0c20.54,28.9,64.08,34.67,88.5,11.53,14.28,4.47,77.37,4.99,80.58-14.62,9.49-2.12,21.18-5.05,26.7-13.94.8-1.29.53-5.63-.7-6.41h.01ZM788.87,41.19c8.78,7.92,21.18,28.77,15.49,35.16-4.8,5.38-12.08,8.07-19.04,9.98-1.13-27.47-15.42-48.82-38.62-63.69,15.51,1.69,30.26,7.82,42.17,18.56h0ZM713.41,40.58c5.39-6.88,10.16-13.29,20.2-16.63l.27,73.43c-13.71-.7-26.5-2.09-38.97-4.74.76-20.35,7.67-36.8,18.5-52.06h0ZM659.42,85.88c12.23,13.33,71.93,16.24,87.27,14.05l48.33-6.9c6.6-.94,14.73-1.23,20.91,1.33,7.75,10.69,26.05,42.7,21.93,53.5-.74,1.93-5.93,4.44-8.77,3.78h0l-60.06-13.79c-27.96-6.42-56.01-5.52-83.46,2.77l-42.34,12.79c-3.95,1.19-10.33,1.46-13.49-1.05-4.13-14.59,22.1-52.22,29.67-66.48h.01ZM750.24,156.39h0c-10.62,2.65-22.32,2.9-33.63.76,1.51-5.01,3.53-7.95,1.48-13.01l-5.34,12.8-34.01-3.01c-.92-.24-1.21-4.32-.6-5.36,12.85-6.06,29.8-8.32,44.57-9.7,20.8-1.94,39.6,2.21,59.49,8.25l4.63,1.41c1.2.36.01,4.47-1.49,4.61l-30.93,2.93-6.09-11.86c-1.77,4.12-.4,5.77,1.91,12.18h.01ZM630.24,211.86c-8.77,4.62-21.89-39.29-17.67-47.35,1.21-4.44,10.46-8.73,14.81-8.06,24.82,3.84,22.19-7.23,46.2-3.26,4.63,12.95-14.81-1.71-18.79,10.85-2.23,7.04,14.25-5.42,18.44-2.2.75.28,1.78,4.4.91,4.61l-3.91.96c-7.42,1.81-26.69,8.12-21.78,17.36h0c3.98,7.51,15.37-13.13,26.85-14.77l4.38,10.69c-18.03,9.58-31.62,21.78-49.44,31.17h0ZM753.76,197.15c-7.32,4.61-16.5,9.77-25.67,9.22-24.13-1.44-51.99-21.48-50.33-48.72,38.58,1.85,45.57,7.01,85.32.95,8.27-1.26,15.99-1.59,24.51-1.62h0c6.42,12.36-25.6,35-33.82,40.17h-.01ZM846.26,183.26c-10.28,12.78-54.69,13.24-71.08,10.39.17-2.1,1.85-5.26,3.32-6.35,4.94-3.68,16.17,8.06,19.1-1.91l-15.53-1.31h0c1.4-9.2,19.15,3.09,35.52-7.45,1.99-1.28,4.08-5.1,3.14-6.72-4.89-8.47-19.05,7.83-32.76,5.97-.03-9.23,12.07-1.33,24.65-11.55,1.63-1.32,2.98-4.87,2.65-6.61-.38-2.03-6.33-3.43-8.04-2.09l-15.97,12.57.06-12.02,10.36-6.74,27.04,4.95c3.59.66,8.85-1.82,12.28-3.49,3.56,10.46,6.49,21.95,5.28,32.36h-.02Z"/>
    <path d="M745.85,189.26c-6.52.49-11.47,4.63-18.85-2.03h0c-3.45-3.11-10.3-4.23-12.29.42,6.34,9.13,21.18,9.9,30.21,5.58.99-.47,1.9-4.03.93-3.96h0Z"/>
  </g>
  <g>
    <path class="st1" d="M11.57,93.18h.29c4.43-7.14,12.14-13.14,22-13.14,2.14,0,3.29.29,4.71.86v11.14h-.43c-1.71-.57-2.86-.71-5.14-.71-11.43,0-21.42,8.57-21.42,22.42v40.99H0v-73.84h11.57s0,12.28,0,12.28Z"/>
    <path class="st1" d="M95.98,154.74v-10.14h-.29c-5.28,7.14-11.57,11.85-22.28,11.85-15.14,0-24.85-9.14-24.85-24.42v-51.13h11.57v50.85c0,9.57,6.14,15.14,16.57,15.14,11.71,0,19.28-8.86,19.28-20.57v-45.42h11.57v73.84h-11.57Z"/>
    <path class="st1" d="M134.83,90.61h.29c5.28-7,12.71-11.43,23.42-11.43,15.43,0,24.85,8.43,24.85,23.71v51.85h-11.57v-50.85c0-9.57-6.28-15-16.71-15-11.71,0-20.28,8.28-20.28,20.42v45.42h-11.57v-73.84h11.57v9.71h0Z"/>
  </g>
  <path class="st1" d="M1648.67,137.79c4.87,7.79,11.2,13.8,18.99,18.02v-45.29h-50.65v-9.26h49.68v-15.59h-36.04v-9.25h36.04v-14.61h9.72c.06,4.99.02,14.61.02,14.61h35.07v9.25h-35.07v15.59h49.19v9.26h-48.22v15.59h34.1v9.25h-34.1v23.38h49.68l-2.44,10.72h-43.35c-12.66,0-24.68-7.14-36.04-21.43-4.22,11.37-11.37,19.97-21.43,25.82l-6.33-9.74c14.61-8.44,22.24-23.87,22.89-46.27l10.81,2.16c-.05,1.68-.1,1.83-.09,2.71.02,3.91-1.14,8.93-2.43,15.1v-.02Z"/>
  <path class="st1" d="M1826.93,136.33l8.77,2.92c0,11.04-1.63,18.68-4.87,22.89-2.6,4.22-6.66,6.16-12.18,5.84-2.92,0-5.85-1.3-8.77-3.9-2.92-2.92-4.39-7.14-4.39-12.66v-50.17c0-4.22-.65-7.14-1.95-8.77-1.3-1.95-3.25-2.92-5.84-2.92-4.87,0-9.58,2.27-14.13,6.82-3.9,3.9-8.77,10.56-14.61,19.97v55.04h-9.74v-40.91c-5.2,8.45-10.23,15.91-15.1,22.4l-6.82-7.79c5.85-6.82,13.15-16.88,21.92-30.2v-11.69h-21.92v-10.72h21.92v-28.25h9.74v37.02c4.87-6.82,9.26-11.69,13.15-14.61,6.16-4.54,12.66-6.49,19.48-5.84,8.77.65,13.31,7.47,13.64,20.46v50.17c-.33,3.58.65,5.53,2.92,5.85,5.85,1.3,8.77-5.68,8.77-20.94h0Z"/>
  <polygon class="st1" points="1908.57 79.12 1920 85.76 1871.8 156.52 1865.94 152.9 1908.57 79.12"/>
  <circle class="st1" cx="1859.05" cy="168.55" r="6.22"/>
  <line class="st2" x1="1024.58" y1="58.3" x2="905.5" y2="177.37"/>
  <line class="st2" x1="1024.58" y1="177.37" x2="905.5" y2="58.3"/>
</svg>